<?xml version="1.0" encoding="UTF-8" standalone="no"?>
<!-- Created with Inkscape (http://www.inkscape.org/) -->

<svg
   xmlns:dc="http://purl.org/dc/elements/1.1/"
   xmlns:cc="http://creativecommons.org/ns#"
   xmlns:rdf="http://www.w3.org/1999/02/22-rdf-syntax-ns#"
   xmlns:svg="http://www.w3.org/2000/svg"
   xmlns="http://www.w3.org/2000/svg"
   xmlns:sodipodi="http://sodipodi.sourceforge.net/DTD/sodipodi-0.dtd"
   xmlns:inkscape="http://www.inkscape.org/namespaces/inkscape"
   width="205.81674mm"
   height="103.43407mm"
   viewBox="0 0 205.81674 103.43407"
   version="1.1"
   id="svg8"
   inkscape:version="0.92.2 2405546, 2018-03-11"
   sodipodi:docname="world_silhouette.svg">
  <defs
     id="defs2" />
  <sodipodi:namedview
     id="base"
     pagecolor="#ffffff"
     bordercolor="#666666"
     borderopacity="1.0"
     inkscape:pageopacity="0.0"
     inkscape:pageshadow="2"
     inkscape:zoom="0.98994949"
     inkscape:cx="287.26756"
     inkscape:cy="100.52172"
     inkscape:document-units="mm"
     inkscape:current-layer="layer1"
     showgrid="false"
     inkscape:window-width="1920"
     inkscape:window-height="1026"
     inkscape:window-x="0"
     inkscape:window-y="25"
     inkscape:window-maximized="1" />
  <metadata
     id="metadata5">
    <rdf:RDF>
      <cc:Work
         rdf:about="">
        <dc:format>image/svg+xml</dc:format>
        <dc:type
           rdf:resource="http://purl.org/dc/dcmitype/StillImage" />
        <dc:title></dc:title>
      </cc:Work>
    </rdf:RDF>
  </metadata>
  <g
     inkscape:label="Layer 1"
     inkscape:groupmode="layer"
     id="layer1"
     transform="translate(-1.5384527,-7.7152965)">
    <path
       style="fill:#e6e6e6;fill-opacity:1;stroke-width:0.34015626"
       d="m 52.43495,111.13893 c -2.385819,-0.1301 -4.15876,-3.19958 -4.450817,-5.08472 1.356392,-2.43914 -2.394185,-4.23268 -1.742227,-6.843181 -0.781872,-4.900023 -0.344423,-9.963784 -1.007726,-14.815533 -1.702782,-1.397556 -5.024935,-2.695291 -6.053529,-5.248725 -0.22113,-2.385355 -3.78192,-4.203866 -2.910348,-6.277438 -0.287396,-2.175845 1.262643,-4.355226 2.68347,-6.536663 0.212765,-1.838077 -0.213936,-4.772261 2.660549,-5.146245 1.286,-3.829153 2.19323,4.183765 2.795253,-0.899296 1.448739,1.159744 4.426638,0.315936 5.715128,1.570002 1.975598,1.128532 4.059644,3.250686 6.305429,3.717965 2.999485,0.425706 1.832138,4.386648 2.715557,4.583208 2.583028,-0.266374 4.134765,2.181149 6.79944,1.701997 1.831254,1.003161 6.152006,2.197406 3.563631,4.791359 -2.886799,3.091733 -1.239506,8.347695 -4.016983,11.259785 -3.574205,0.121266 -4.051175,2.420009 -5.001081,5.241847 -0.33844,1.862859 -2.311567,5.304396 -4.543632,3.590547 0.614882,0.535164 2.167258,3.678611 -0.956044,3.766631 -0.668456,1.3362 -3.122777,1.5996 -1.774014,3.91034 -1.925159,2.40781 1.539189,2.37007 -0.02993,5.45439 -0.185301,0.6121 0.382544,1.6676 -0.752125,1.26373 z m 144.2219,-10.49372 c -2.77415,0.36443 -3.93555,-1.85788 -3.6867,-4.041084 -0.63227,0.142934 -2.32589,0.0473 -3.78165,-1.761014 -4.00741,-0.115302 -7.91673,2.700723 -11.73107,2.296356 0.54879,-3.23551 -0.18456,-6.845116 1.23216,-9.827381 2.21574,-1.593152 5.81792,-1.202576 6.73083,-4.183479 1.77844,-0.322345 2.95557,-3.787875 5.14488,-1.094862 0.13959,-2.095206 3.14253,-3.119195 5.33994,-2.617508 -1.81756,2.298532 2.17468,6.060696 3.33263,2.823804 0.77317,-3.219825 1.60568,-3.524178 2.84644,-0.137699 0.19171,2.466113 1.42003,4.575781 3.09178,6.154198 1.61867,1.698775 0.15983,4.773804 -0.80553,6.676545 -2.35107,2.220143 -4.44253,4.979124 -7.71371,5.712124 z m -85.13638,-3.526157 c -2.95319,0.881703 -1.77478,-3.611662 -3.74133,-4.732463 -1.11225,-2.342282 -0.7156,-5.32674 -2.44925,-7.554978 -2.15196,-2.60613 1.80415,-4.900406 0.4975,-7.652571 -0.24127,-2.466721 -1.67918,-4.638979 -3.23663,-6.508069 1.24951,-2.204806 0.32576,-4.919094 -2.21302,-4.772984 -2.164337,-2.565442 -5.777812,-0.118154 -8.511485,0.210845 -3.614658,0.858659 -5.199718,-3.332124 -7.229756,-5.428712 -2.444218,-2.021489 0.82779,-5.214056 -0.501478,-7.754815 0.287964,-3.281013 3.979034,-5.050224 5.14502,-7.729478 0.999408,-2.457498 3.535357,-3.897487 6.20209,-3.618169 2.794205,-0.340574 5.561079,-0.893918 8.364629,-1.152674 -1.47047,3.560111 2.75709,3.744909 5.02833,5.097119 2.1908,-0.277964 2.05731,-2.760987 5.11318,-0.713966 2.51682,0.0012 6.62356,1.613646 7.16104,-2.020052 1.02806,-3.424436 -4.10868,-0.665698 -5.68538,-2.417429 -0.42246,-1.705993 -2.38247,-4.209456 -2.90642,-1.66821 0.76781,3.69295 -3.60045,0.221217 -3.05556,-2.004222 -1.00479,-0.281121 -5.39532,-4.44444 -4.28692,-1.842572 1.16321,1.560652 5.08707,2.782299 2.5732,3.829083 -1.25451,2.3041 -2.72445,1.361291 -0.60236,-0.141618 -1.17321,-1.725128 -3.63605,-2.322666 -4.63527,-3.688296 -1.02911,1.525738 -3.243689,-0.04228 -4.200929,2.255875 -2.009927,0.74937 -2.164945,4.630344 -5.253162,3.669818 -3.218902,0.513472 -2.91444,-3.77114 -1.735488,-5.588108 1.966125,0.432473 5.891263,1.190992 4.03918,-1.923576 -1.397688,-1.414786 0.235935,-1.103656 0.208041,-2.465048 2.996562,0.428439 3.750403,-2.979024 6.182298,-3.128953 2.2335,-2.005918 6.58127,0.984936 8.3868,-1.766046 1.13116,-0.698524 0.88247,-2.552801 2.84016,-2.378381 2.24991,-1.390064 -5.16218,-0.207742 -2.0788,-2.952662 0.57627,-2.531744 -4.49186,0.901748 -2.55197,2.871033 -0.65511,2.871818 -3.61274,3.433715 -4.59468,0.83425 -2.50328,-0.363453 -4.372704,-1.28161 -1.48612,-2.93136 1.74681,-2.344667 4.61615,-3.978106 7.02453,-5.825415 3.58344,0.08412 7.11166,0.463316 10.45377,1.836977 0.11628,2.263907 -6.0525,-0.215287 -1.78872,2.740476 2.12217,0.150314 3.98995,-2.674621 6.45383,-2.913948 2.51077,0.835011 4.60626,-1.792497 6.70151,-0.03349 3.17018,1.222328 3.12401,-0.508807 1.72087,-2.442122 2.48871,-2.867615 3.03262,4.056916 4.54191,2.958896 -0.87895,-3.349089 -1.367,-2.998436 1.39303,-1.216687 -1.52053,-3.677686 3.13696,-2.721576 5.24155,-3.489214 2.44108,-2.275751 6.20509,-0.44564 9.24968,-0.848353 0.0701,1.713709 -0.60598,2.729944 3.5673,2.194709 3.43107,-0.120299 6.76475,0.188584 10.05222,1.025384 2.99701,1.5809 4.36249,-2.607127 6.84936,-0.232795 5.11512,0.330137 10.36545,0.44821 15.28516,1.941404 1.57625,-2.104916 5.06217,0.0368 7.32939,0.159026 2.2736,0.901866 5.06522,-0.197686 6.82344,2.119391 -1.81447,-0.424473 -7.78744,-0.889723 -3.81654,1.034768 2.74949,0.281447 -3.60564,4.128 -2.48607,2.003501 -3.0006,0.458744 -1.98281,2.021572 -0.26657,3.151239 0.78978,2.241493 0.45096,6.198191 -2.04768,2.642883 -0.95288,-1.621617 -3.87459,-3.365707 -1.7987,-5.281868 0.47813,-2.06862 -4.03237,-1.564367 -4.1749,0.331737 -1.09715,1.813771 -5.08277,-1.058601 -6.71018,0.802011 -2.19674,1.482518 -0.75681,4.619756 1.90289,3.565612 2.7956,-0.190592 4.35952,3.241722 3.83898,5.72399 -0.35803,2.974879 -3.33752,1.551445 -3.76833,3.958026 -0.41632,2.249189 5.36093,3.982 1.02769,5.361526 -1.20443,-1.123961 -2.10599,-3.129737 -3.70863,-4.4214 -1.33607,1.013525 -3.25311,-2.480192 -4.17398,1.844957 3.55017,-0.06513 2.53753,0.412474 3.02573,2.929555 2.41467,1.776442 3.93074,5.556247 1.04571,7.621582 -2.4309,1.028125 -4.07317,2.619338 -5.4119,5.022365 1.31407,-3.530358 -3.21923,-3.956186 -2.8648,-0.820696 1.79342,1.807137 5.04115,4.695492 2.12473,6.939741 -2.32769,3.407328 -3.66881,-2.708651 -5.80261,-1.859379 0.58057,4.340235 -1.5022,2.577612 -1.16865,-0.772166 -0.0756,-3.185842 -2.565,-0.370886 -2.89363,-3.596982 -1.36529,-1.676345 -3.47652,-4.909624 -5.65876,-2.412519 -1.78681,1.767517 -4.57221,2.781055 -4.68577,5.624423 1.66171,2.356119 -2.05635,6.69916 -2.84838,2.587166 -0.95425,-2.675461 -2.72494,-5.3539 -2.52212,-8.097446 -1.74696,0.290585 -3.63549,-1.49961 -5.26263,-3.326971 -2.7974,-0.24531 -5.88588,0.395907 -8.02282,-1.860858 -1.99932,1.463428 -5.28276,-3.553387 -5.16488,-1.494004 0.32922,2.305066 2.36995,5.948577 4.66046,3.087685 0.57036,-2.128277 4.43292,3.00403 2.9215,3.716383 -1.7893,2.79752 -4.48833,4.399901 -7.53085,5.551038 -2.62387,2.122507 -3.75495,-1.187805 -4.29048,-3.233657 -2.23741,-2.569187 -3.23596,-5.553636 -5.28216,-8.244138 -3.58137,-1.178669 1.01081,3.459206 0.96868,5.155561 0.68704,3.483673 4.60123,5.096579 5.03977,8.626978 1.81302,0.980785 6.60658,-1.79469 5.90606,0.593514 -1.45628,4.866055 -6.085,8.027638 -8.80569,12.234723 0.69478,3.143575 2.69817,7.562993 -0.85922,9.601394 -3.35492,1.311144 -0.45085,5.248656 -3.44322,6.504055 -1.55258,3.524026 -4.70406,6.614497 -8.67634,6.998817 z m 17.65896,-7.277495 c -2.93755,0.703136 -1.65274,-3.504674 -0.82617,-4.677765 -1.10842,-2.957792 3.08351,-3.534381 4.00593,-4.952854 1.11286,3.1208 -1.97144,6.466084 -2.12561,9.332767 -0.35138,0.09928 -0.70277,0.198568 -1.05415,0.297852 z m 77.14861,-11.457602 c -2.51144,-0.611272 -3.74024,-2.79399 -6.51218,-1.715162 -2.64583,-0.339406 -1.55659,-3.804542 -4.80145,-3.613196 -1.6235,-0.450093 -3.02322,-4.430883 -0.30534,-2.163589 0.67552,3.763451 2.58736,-0.926128 4.56387,0.928037 1.84161,0.830599 5.66933,1.524844 5.08092,3.958308 0.22878,0.625999 4.73928,3.151903 1.97418,2.605602 z M 173.01835,74.68993 c -2.60602,-2.154856 -3.92152,-6.016409 -6.2775,-8.689083 1.12977,-1.102719 2.93804,2.680242 4.57126,2.657256 0.57577,1.692491 5.07796,5.142185 1.70624,6.031827 z m 7.92197,-2.19209 c -2.44905,0.593131 -4.98331,-1.014211 -4.08846,-3.715704 1.95091,-0.169805 2.91993,-3.101041 5.03495,-4.174912 2.21725,0.660906 1.207,4.468925 0.53484,6.106245 -0.70117,0.389906 -0.69366,1.677807 -1.48133,1.784371 z M 36.240183,63.533385 c -2.834827,-0.250898 -3.166367,-3.113232 -5.003621,-4.710007 -2.478824,0.47717 -3.737841,-2.617611 -6.338114,-1.618752 -1.894478,-0.635005 -5.477112,-1.780675 -5.195764,-4.21786 -0.832654,-2.679392 -3.036034,-4.946737 -3.691503,-7.80977 -2.27631,-0.845197 1.734976,5.429907 0.06364,4.881752 -1.626338,-1.801252 -1.411803,-4.727727 -2.241825,-6.598882 -2.036805,-1.036324 -2.654018,-4.563195 -1.433673,-6.355286 1.634376,-1.979324 3.289408,-4.126154 4.100212,-6.279346 -0.673581,-2.416428 1.049324,-6.257725 -1.833249,-7.36075 -2.293352,-1.495256 -6.1931937,-0.141157 -7.3760582,-0.500543 -1.6454602,1.140921 -4.288422,2.375908 -5.0662741,0.581747 -2.56507447,-2.007398 2.1457499,-3.027846 3.6368853,-3.224692 0.7060229,-0.145929 -3.5691784,-2.278084 1.0009384,-1.717269 0.5898968,-1.27702 3.5633376,-2.678864 6.5035356,-2.707538 2.620171,-0.05179 5.638795,-1.232401 8.028881,-0.280253 1.43634,3.220933 4.436178,0.506337 6.942823,0.654232 3.495191,-0.04634 7.113021,0.09998 10.159579,2.012617 1.511111,-1.950421 4.928961,-0.766807 7.063799,-0.317302 0.819912,-0.787589 3.548443,-5.210722 3.619794,-1.75021 0.52242,2.360746 3.886678,-0.842891 4.254055,0.744922 -1.379856,1.490534 -4.70815,1.913049 -5.406943,2.368638 -1.565036,1.846536 -4.776499,1.697278 -6.581733,3.623154 -1.230334,2.743442 2.599431,3.332503 4.612444,3.516206 -1.903007,2.696189 1.940612,3.451197 1.994493,0.612706 3.244147,-0.101517 1.779108,-3.122531 3.283938,-4.352448 1.198059,-1.770855 5.406857,-1.903285 5.041421,0.981593 2.145121,-0.220168 3.966711,-1.282824 3.812869,2.493633 3.113802,0.488132 1.243612,3.908688 -1.707165,3.91515 -1.533971,-0.07979 -7.111954,0.512873 -5.472971,1.251308 4.666284,-0.363695 -0.189026,1.324026 2.815487,1.747226 4.070742,-0.444971 -1.518974,1.18977 -2.41554,2.412526 0.165013,-2.469555 -2.95071,-0.962672 -4.678323,1.534081 -2.018859,0.08611 -3.879546,2.486558 -4.693229,4.184301 -1.681356,1.781308 -6.029546,2.307449 -5.032449,5.349381 0.969354,3.499683 -2.029602,3.674923 -1.893218,0.114147 -2.040943,-3.211831 -3.984699,1.269664 -6.115076,-0.678421 -2.587326,0.294624 -4.890654,2.07991 -4.992535,4.980774 -1.846656,2.621054 2.099537,5.414357 4.063434,3.352592 0.823331,-3.172749 4.262617,-1.634521 2.151736,1.045948 -1.754118,2.627481 4.413601,0.239526 2.455392,4.036046 -1.190986,2.224851 1.955404,3.023356 1.563909,4.084649 z m 35.213014,-40.83167 c -2.040284,-0.368422 -4.798711,-5.383164 -2.118711,-5.738957 2.714535,0.14028 0.633482,-3.793242 -0.686145,-4.615113 -2.450236,-1.006698 -5.228855,-2.5052052 -0.716977,-1.750184 3.001408,-2.7444565 -3.479564,-0.113603 -4.920149,-0.07816 -2.483491,0.623371 -4.583995,2.524232 -7.148809,0.925603 -3.053053,-2.2454229 2.749934,-2.2148473 4.347976,-2.5427784 4.063735,-2.300105 8.996682,-0.6182843 13.474838,-0.9422772 4.966684,-0.1885005 9.89944,1.045521 14.810191,0.020568 4.632263,0.5642505 0.06412,2.5978492 -0.547812,4.5314432 -3.586057,-0.613674 -1.75028,3.795844 -4.6118,3.928942 -2.497652,0.32353 -4.972962,0.689034 -6.916903,2.275857 -2.716769,-0.29505 -3.034386,3.014312 -4.965699,3.985056 z M 59.584089,21.668016 c -3.245844,-0.348595 -4.308242,-2.384182 -1.521732,-3.576734 0.356325,-2.496806 -3.028648,-3.359339 -4.482331,-2.422248 -3.111993,-0.513757 1.58803,-3.123923 3.752154,-1.940994 2.511864,0.347773 3.825036,1.321241 4.537263,3.572306 -0.721406,1.370708 -0.517449,2.862456 -1.987822,3.059233 -0.08945,0.51993 1.002024,1.753977 -0.297532,1.308437 z M 39.036044,16.681017 c -2.768802,0.562234 -2.347979,-2.219352 -4.995809,-2.325034 1.800296,-2.525499 4.606424,-0.67628 6.56475,0.228095 2.530636,-1.467299 5.275847,0.436764 2.11746,1.87529 -1.124448,0.52317 -2.576546,-0.285221 -3.686401,0.221649 z"
       id="path3797"
       inkscape:connector-curvature="0" />
  </g>
</svg>
